<svg width="32" height="33" viewBox="0 0 32 33" fill="none" xmlns="http://www.w3.org/2000/svg">
<path fill-rule="evenodd" clip-rule="evenodd" d="M26.6667 7.16666C27.403 7.16666 28 7.76361 28 8.49999C28 9.18377 27.4853 9.74733 26.8222 9.82435L26.6667 9.83332H5.33333C4.59695 9.83332 4 9.23637 4 8.49999C4 7.81621 4.51472 7.25265 5.17784 7.17563L5.33333 7.16666H26.6667ZM26.6667 15.1666C27.403 15.1666 28 15.7636 28 16.5C28 17.1838 27.4853 17.7473 26.8222 17.8243L26.6667 17.8333H5.33333C4.59695 17.8333 4 17.2363 4 16.5C4 15.8162 4.51472 15.2526 5.17784 15.1756L5.33333 15.1666H26.6667ZM28 24.5C28 23.7636 27.403 23.1666 26.6667 23.1666H5.33333L5.17784 23.1756C4.51472 23.2526 4 23.8162 4 24.5C4 25.2363 4.59695 25.8333 5.33333 25.8333H26.6667L26.8222 25.8243C27.4853 25.7473 28 25.1838 28 24.5Z" fill="#004B87"/>
</svg>
