<svg width="32" height="32" viewBox="0 0 32 32" fill="none" xmlns="http://www.w3.org/2000/svg">
<path fill-rule="evenodd" clip-rule="evenodd" d="M16 2.66675C17.8936 2.66675 19.4798 3.98248 19.8944 5.74958L19.9053 5.80675C22.9863 7.54149 25.0154 10.6952 25.3086 14.281L25.3334 14.6667V18.5747L25.362 18.7566C25.5615 19.831 26.1926 20.7776 27.1076 21.375L27.3237 21.5065C28.47 22.1557 28.0711 23.8619 26.8208 23.9922L26.6667 24.0001L21.3333 24.0001C21.3333 26.9456 18.9455 29.3334 16 29.3334C13.1437 29.3334 10.8119 27.0881 10.6732 24.2663L10.6667 24.0001L5.33335 24.0001C3.96331 24.0001 3.48418 22.1816 4.67635 21.5065C5.70779 20.9224 6.42315 19.9136 6.63803 18.7566L6.66668 18.5654L6.66815 14.6042C6.8352 11.0453 8.7639 7.83213 11.7633 6.00106L12.0934 5.80675L12.1057 5.74958C12.503 4.05611 13.9763 2.77718 15.765 2.67354L16 2.66675ZM13.3333 24.0001C13.3333 25.4728 14.5272 26.6667 16 26.6667C17.4058 26.6667 18.5576 25.5789 18.6594 24.1991L18.6667 24.0001H13.3333ZM20 21.3334H12H8.49202L8.68206 20.9794C9.01209 20.3117 9.2319 19.5853 9.3237 18.827L9.33336 18.6667V14.6667L9.35524 14.3464C9.6021 11.5806 11.3279 9.08991 13.9134 7.86674L14.0401 7.79754L14.1646 7.70959C14.283 7.61541 14.3824 7.50318 14.4608 7.3789L14.5312 7.25311C14.5963 7.12039 14.6399 6.97527 14.6577 6.82224L14.6757 6.51125C14.7527 5.84813 15.3162 5.33341 16 5.33341C16.7364 5.33341 17.3334 5.93036 17.3334 6.66674L17.3442 6.83662C17.4015 7.28357 17.6824 7.6762 18.0967 7.87211C20.7712 9.13675 22.5295 11.7741 22.6682 14.7293L22.6667 18.6667L22.6764 18.827L22.7246 19.1566C22.8561 19.9207 23.1182 20.6474 23.4921 21.3083L23.5067 21.3334H20Z" fill="#004B87"/>
</svg>
