<svg width="48" height="48" viewBox="0 0 48 48" fill="none" xmlns="http://www.w3.org/2000/svg">
<g clip-path="url(#clip0_1443_71)">
<path d="M47.9942 24.0057C47.9942 37.2622 37.2494 48.0073 23.9948 48.0073C10.7396 48.0073 -0.00518799 37.2622 -0.00518799 24.0057C-0.00518799 10.7499 10.7396 0.00482941 23.9948 0.00482941C37.2494 0.00482941 47.9942 10.7499 47.9942 24.0057Z" fill="#00A9CE"/>
<path d="M21.9044 5.76566C21.2473 5.76566 20.7129 6.29796 20.7129 6.95652V17.1475C20.7129 17.806 21.2473 18.3383 21.9044 18.3383C22.5608 18.3383 23.0945 17.806 23.0945 17.1475V6.95652C23.0945 6.29796 22.5608 5.76566 21.9044 5.76566ZM29.8794 5.76566C29.2229 5.76566 28.6886 6.29796 28.6886 6.95652V21.7199C28.6886 22.377 29.2229 22.9114 29.8794 22.9114C30.5372 22.9114 31.0694 22.377 31.0694 21.7199V6.95652C31.0694 6.29796 30.5372 5.76566 29.8794 5.76566ZM13.9287 11.4811C13.2709 11.4811 12.738 12.0141 12.738 12.672V19.435C12.738 20.0909 13.2709 20.6252 13.9287 20.6252C14.5858 20.6252 15.1181 20.0909 15.1181 19.435V12.672C15.1181 12.0141 14.5858 11.4811 13.9287 11.4811ZM33.8672 11.4811C33.2108 11.4811 32.6764 12.0141 32.6764 12.672V19.435C32.6764 20.0909 33.2108 20.6252 33.8672 20.6252C34.5243 20.6252 35.0566 20.0909 35.0566 19.435V12.672C35.0566 12.0141 34.5243 11.4811 33.8672 11.4811ZM17.9166 8.0511C17.2587 8.0511 16.7251 8.58409 16.7251 9.24196V18.2905C16.7251 18.9484 17.2587 19.482 17.9166 19.482C18.5737 19.482 19.1073 18.9484 19.1073 18.2905V9.24196C19.1073 8.58409 18.5737 8.0511 17.9166 8.0511ZM25.8929 9.19433C25.2344 9.19433 24.7015 9.728 24.7015 10.3852V20.5775C24.7015 21.2333 25.2344 21.7677 25.8929 21.7677C26.5494 21.7677 27.0823 21.2333 27.0823 20.5775V10.3852C27.0823 9.728 26.5494 9.19433 25.8929 9.19433ZM31.1661 25.3389C31.1661 26.0494 30.5902 26.624 29.8798 26.624C29.1702 26.624 28.5942 26.0494 28.5942 25.3389C28.5942 24.6299 29.1702 24.0546 29.8798 24.0546C30.5902 24.0546 31.1661 24.6299 31.1661 25.3389ZM39.5662 32.8472C39.5662 31.5737 38.6327 30.5119 37.3171 30.5119C36.0015 30.5119 35.0898 31.5519 35.0898 32.8253V32.8472C35.0898 34.1186 36.022 35.1811 37.339 35.1811C38.6539 35.1811 39.5662 34.1411 39.5662 32.8677V32.8472ZM37.3171 36.6859C35.0264 36.6859 33.3818 34.9798 33.3818 32.8677V32.8472C33.3818 30.735 35.0482 29.0057 37.339 29.0057C39.6304 29.0057 41.2729 30.7145 41.2729 32.8253V32.8472C41.2729 34.9573 39.6079 36.6859 37.3171 36.6859ZM30.5781 31.6694C30.5781 30.9692 30.0923 30.6082 29.2966 30.6082H27.6739V32.7408H29.328C30.1243 32.7408 30.5781 32.317 30.5781 31.6905V31.6694ZM30.5474 36.5591L28.9568 34.1848H27.6739V36.5591H26.0403V29.1334H29.4338C31.1827 29.1334 32.2336 30.0567 32.2336 31.5834V31.6059C32.2336 32.8036 31.588 33.5577 30.643 33.9078L32.4574 36.5591H30.5474ZM22.3172 36.5589V29.1333H23.9502V36.5589H22.3172ZM17.7844 36.6653C16.6605 36.6653 15.5264 36.2729 14.6352 35.4771L15.5987 34.3204C16.2674 34.8725 16.9682 35.2233 17.8178 35.2233C18.4859 35.2233 18.8885 34.9571 18.8885 34.5231V34.5019C18.8885 34.0863 18.6333 33.8754 17.3913 33.5574C15.899 33.1752 14.9307 32.7603 14.9307 31.2869V31.2658C14.9307 29.9193 16.0129 29.0273 17.5298 29.0273C18.6121 29.0273 19.5367 29.3651 20.288 29.9718L19.4391 31.2023C18.7827 30.7457 18.1358 30.4693 17.5087 30.4693C16.8829 30.4693 16.554 30.756 16.554 31.117V31.1402C16.554 31.6268 16.872 31.7844 18.1563 32.1127C19.6623 32.5071 20.5098 33.0476 20.5098 34.3429V34.3634C20.5098 35.8402 19.3859 36.6653 17.7844 36.6653ZM10.5238 36.6863C8.33954 36.6863 6.71616 34.9993 6.71616 32.868V32.8475C6.71616 30.7347 8.30679 29.0054 10.5873 29.0054C11.9896 29.0054 12.8255 29.4749 13.5161 30.1526L12.4761 31.3496C11.9023 30.8316 11.3202 30.5122 10.5771 30.5122C9.32626 30.5122 8.42347 31.5522 8.42347 32.8257V32.8475C8.42347 34.1182 9.30511 35.1808 10.5771 35.1808C11.4273 35.1808 11.9459 34.8409 12.5294 34.31L13.5686 35.3617C12.805 36.1772 11.9562 36.6863 10.5238 36.6863Z" fill="white"/>
</g>
<defs>
<clipPath id="clip0_1443_71">
<rect width="48" height="48" fill="white"/>
</clipPath>
</defs>
</svg>
