<svg width="32" height="32" viewBox="0 0 32 32" fill="none" xmlns="http://www.w3.org/2000/svg">
<path fill-rule="evenodd" clip-rule="evenodd" d="M16 2.66675C12.3181 2.66675 9.33335 5.65152 9.33335 9.33342C9.33335 13.0153 12.3181 16.0001 16 16.0001C19.6819 16.0001 22.6667 13.0153 22.6667 9.33342C22.6667 5.65152 19.6819 2.66675 16 2.66675ZM16 5.33341C18.2092 5.33341 20 7.12427 20 9.33341C20 11.5425 18.2092 13.3334 16 13.3334C13.7909 13.3334 12 11.5425 12 9.33341C12 7.12427 13.7909 5.33341 16 5.33341ZM25.3272 25.0442C25.1758 21.4965 22.2517 18.6667 18.6667 18.6667H13.3334L13.0442 18.6729C9.49643 18.8243 6.66669 21.7484 6.66669 25.3334V28.0001L6.67566 28.1556C6.75268 28.8187 7.31624 29.3334 8.00002 29.3334C8.7364 29.3334 9.33335 28.7365 9.33335 28.0001V25.3334L9.34014 25.0984C9.46181 22.9986 11.2031 21.3334 13.3334 21.3334H18.6667L18.9017 21.3402C21.0015 21.4619 22.6667 23.2032 22.6667 25.3334V28.0001L22.6757 28.1556C22.7527 28.8187 23.3162 29.3334 24 29.3334C24.7364 29.3334 25.3334 28.7365 25.3334 28.0001V25.3334L25.3272 25.0442Z" fill="#004B87"/>
</svg>
