<svg width="32" height="32" viewBox="0 0 32 32" fill="none" xmlns="http://www.w3.org/2000/svg">
<path fill-rule="evenodd" clip-rule="evenodd" d="M22.6667 29.3336H9.33334C7.12001 29.3336 5.33334 27.5336 5.33334 25.3336V6.66697C5.33334 4.45363 7.12001 2.66697 9.33334 2.66697H18.6375L18.6667 2.66667H18.6667V2.66563C19.0133 2.6523 19.36 2.79897 19.6133 3.0523L26.28 9.71897C26.4089 9.84781 26.5108 10.0074 26.5776 10.1833C26.627 10.3135 26.6572 10.4527 26.6648 10.5949C26.666 10.6184 26.6667 10.642 26.6667 10.6656V25.3323C26.6667 27.5323 24.8667 29.3323 22.6667 29.3323V29.3336ZM9.33334 5.33363H17.3333V9.33333C17.3333 10.8 18.52 12 20 12H24V25.3336C24 26.067 23.4 26.667 22.6667 26.667H9.33334C8.58668 26.667 8.00001 26.067 8.00001 25.3336V6.66697C8.00001 5.9203 8.58668 5.33363 9.33334 5.33363ZM20 9.33333V7.21362L22.1197 9.33333H20ZM12 13.3333H13.3333C14.0667 13.3333 14.6667 12.7333 14.6667 12C14.6667 11.2533 14.0667 10.6667 13.3333 10.6667H12C11.2533 10.6667 10.6667 11.2533 10.6667 12C10.6667 12.7333 11.2533 13.3333 12 13.3333ZM20 18.6667H12C11.2533 18.6667 10.6667 18.0667 10.6667 17.3333C10.6667 16.5867 11.2533 16 12 16H20C20.7333 16 21.3333 16.5867 21.3333 17.3333C21.3333 18.0667 20.7333 18.6667 20 18.6667ZM12 24H20C20.7333 24 21.3333 23.4 21.3333 22.6667C21.3333 21.92 20.7333 21.3333 20 21.3333H12C11.2533 21.3333 10.6667 21.92 10.6667 22.6667C10.6667 23.4 11.2533 24 12 24Z" fill="#004B87"/>
</svg>
