<svg width="33" height="32" viewBox="0 0 33 32" fill="none" xmlns="http://www.w3.org/2000/svg">
<path fill-rule="evenodd" clip-rule="evenodd" d="M13.9999 2.66675C8.10891 2.66675 3.33328 7.44238 3.33328 13.3334C3.33328 19.2245 8.10891 24.0001 13.9999 24.0001C16.4649 24.0001 18.7346 23.164 20.5409 21.7599L27.7238 28.9428L27.8494 29.0537C28.3725 29.4604 29.1288 29.4235 29.6094 28.9428C30.1301 28.4221 30.1301 27.5779 29.6094 27.0572L22.4265 19.8742C23.8305 18.068 24.6666 15.7983 24.6666 13.3334C24.6666 7.44238 19.891 2.66675 13.9999 2.66675ZM14 5.33333C18.4182 5.33333 22 8.91506 22 13.3333C22 17.7516 18.4182 21.3333 14 21.3333C9.58168 21.3333 5.99996 17.7516 5.99996 13.3333C5.99996 8.91506 9.58168 5.33333 14 5.33333ZM14 16C14.6837 16 15.2473 16.5147 15.3243 17.1778L15.3333 17.3467C15.3333 18.083 14.7363 18.68 14 18.68C13.3162 18.68 12.7526 18.1653 12.6756 17.5022L12.6666 17.3333C12.6666 16.597 13.2636 16 14 16ZM15.5145 8.36326C14.1411 7.66335 12.4669 7.99644 11.466 9.16873C10.9878 9.72875 11.0542 10.5704 11.6142 11.0485C12.1742 11.5267 13.0158 11.4603 13.494 10.9003L13.575 10.8203C13.7769 10.6524 14.0633 10.6167 14.3037 10.7392C14.5784 10.8792 14.7212 11.1892 14.6492 11.489C14.5771 11.7888 14.3089 12 14.0006 11.9998C13.2643 11.9995 12.667 12.5961 12.6666 13.3325C12.6663 14.0689 13.2629 14.6661 13.9993 14.6665C15.5408 14.6673 16.8817 13.611 17.242 12.1123C17.6023 10.6135 16.8879 9.06317 15.5145 8.36326Z" fill="#004B87"/>
</svg>
