<svg width="33" height="32" viewBox="0 0 33 32" fill="none" xmlns="http://www.w3.org/2000/svg">
<path fill-rule="evenodd" clip-rule="evenodd" d="M21.6667 9.33325H21.6666H20.3332H12.3332H11H10.9999C10.2636 9.33332 9.66668 9.93024 9.66668 10.6666C9.66668 11.4029 10.2636 11.9999 10.9999 11.9999V15.238C10.9999 15.487 10.9302 15.731 10.7986 15.9424L6.27033 23.22C4.61243 25.8845 6.52839 29.3333 9.66655 29.3333H22.9912C26.1279 29.3333 28.0441 25.8873 26.3891 23.2227L21.8673 15.9427C21.7361 15.7315 21.6666 15.4878 21.6666 15.2392V11.9999H21.6667C22.4031 11.9999 23 11.403 23 10.6666C23 9.93021 22.4031 9.33325 21.6667 9.33325ZM13.6666 15.238V11.9999H18.9999V15.2392C18.9999 15.985 19.2084 16.7161 19.602 17.3497L21.2481 19.9999H11.4147L13.0628 17.3512C13.4574 16.717 13.6666 15.985 13.6666 15.238ZM9.75544 22.6666L8.53448 24.6288C7.98184 25.517 8.6205 26.6666 9.66655 26.6666H22.9912C24.0367 26.6666 24.6755 25.5179 24.1238 24.6297L22.9044 22.6666H9.75544Z" fill="#004B87"/>
<path fill-rule="evenodd" clip-rule="evenodd" d="M19 5.33341C19.7364 5.33341 20.3333 4.73646 20.3333 4.00008C20.3333 3.2637 19.7364 2.66675 19 2.66675C18.2636 2.66675 17.6667 3.2637 17.6667 4.00008C17.6667 4.73646 18.2636 5.33341 19 5.33341ZM13.6667 6.66675C14.4031 6.66675 15 6.06979 15 5.33341C15 4.59704 14.4031 4.00008 13.6667 4.00008C12.9303 4.00008 12.3333 4.59704 12.3333 5.33341C12.3333 6.06979 12.9303 6.66675 13.6667 6.66675Z" fill="#004B87"/>
</svg>
